<?xml version="1.0" encoding="utf-8" ?>
<svg xmlns="http://www.w3.org/2000/svg" xmlns:ev="http://www.w3.org/2001/xml-events" xmlns:xlink="http://www.w3.org/1999/xlink" baseProfile="full" height="8.5in" version="1.1" width="11in">
  <defs/>
  <g id="hlines" stroke="#000000" stroke-dasharray=".5 2.75" stroke-linecap="round" stroke-opacity=".5" stroke-width=".5">
    <line x1="0.39370078740157477in" x2="4.909448818897638in" y1="0.5905511811023622in" y2="0.5905511811023622in"/>
    <line x1="0.39370078740157477in" x2="4.909448818897638in" y1="0.8052868391451069in" y2="0.8052868391451069in"/>
    <line x1="0.39370078740157477in" x2="4.909448818897638in" y1="1.0200224971878515in" y2="1.0200224971878515in"/>
    <line x1="0.39370078740157477in" x2="4.909448818897638in" y1="1.2347581552305962in" y2="1.2347581552305962in"/>
    <line x1="0.39370078740157477in" x2="4.909448818897638in" y1="1.449493813273341in" y2="1.449493813273341in"/>
    <line x1="0.39370078740157477in" x2="4.909448818897638in" y1="1.6642294713160855in" y2="1.6642294713160855in"/>
    <line x1="0.39370078740157477in" x2="4.909448818897638in" y1="1.8789651293588303in" y2="1.8789651293588303in"/>
    <line x1="0.39370078740157477in" x2="4.909448818897638in" y1="2.093700787401575in" y2="2.093700787401575in"/>
    <line x1="0.39370078740157477in" x2="4.909448818897638in" y1="2.3084364454443196in" y2="2.3084364454443196in"/>
    <line x1="0.39370078740157477in" x2="4.909448818897638in" y1="2.5231721034870644in" y2="2.5231721034870644in"/>
    <line x1="0.39370078740157477in" x2="4.909448818897638in" y1="2.737907761529809in" y2="2.737907761529809in"/>
    <line x1="0.39370078740157477in" x2="4.909448818897638in" y1="2.9526434195725537in" y2="2.9526434195725537in"/>
    <line x1="0.39370078740157477in" x2="4.909448818897638in" y1="3.1673790776152986in" y2="3.1673790776152986in"/>
    <line x1="0.39370078740157477in" x2="4.909448818897638in" y1="3.382114735658043in" y2="3.382114735658043in"/>
    <line x1="0.39370078740157477in" x2="4.909448818897638in" y1="3.596850393700788in" y2="3.596850393700788in"/>
    <line x1="0.39370078740157477in" x2="4.909448818897638in" y1="3.8115860517435323in" y2="3.8115860517435323in"/>
    <line x1="0.39370078740157477in" x2="4.909448818897638in" y1="4.026321709786277in" y2="4.026321709786277in"/>
    <line x1="0.39370078740157477in" x2="4.909448818897638in" y1="4.241057367829022in" y2="4.241057367829022in"/>
    <line x1="0.39370078740157477in" x2="4.909448818897638in" y1="4.455793025871767in" y2="4.455793025871767in"/>
    <line x1="0.39370078740157477in" x2="4.909448818897638in" y1="4.670528683914511in" y2="4.670528683914511in"/>
    <line x1="0.39370078740157477in" x2="4.909448818897638in" y1="4.885264341957256in" y2="4.885264341957256in"/>
    <line x1="0.39370078740157477in" x2="4.909448818897638in" y1="5.1000000000000005in" y2="5.1000000000000005in"/>
    <line x1="0.39370078740157477in" x2="4.909448818897638in" y1="5.314735658042745in" y2="5.314735658042745in"/>
    <line x1="0.39370078740157477in" x2="4.909448818897638in" y1="5.52947131608549in" y2="5.52947131608549in"/>
    <line x1="0.39370078740157477in" x2="4.909448818897638in" y1="5.744206974128235in" y2="5.744206974128235in"/>
    <line x1="0.39370078740157477in" x2="4.909448818897638in" y1="5.958942632170979in" y2="5.958942632170979in"/>
    <line x1="0.39370078740157477in" x2="4.909448818897638in" y1="6.173678290213724in" y2="6.173678290213724in"/>
    <line x1="0.39370078740157477in" x2="4.909448818897638in" y1="6.388413948256469in" y2="6.388413948256469in"/>
    <line x1="0.39370078740157477in" x2="4.909448818897638in" y1="6.603149606299214in" y2="6.603149606299214in"/>
    <line x1="0.39370078740157477in" x2="4.909448818897638in" y1="6.8178852643419585in" y2="6.8178852643419585in"/>
    <line x1="0.39370078740157477in" x2="4.909448818897638in" y1="7.0326209223847025in" y2="7.0326209223847025in"/>
    <line x1="0.39370078740157477in" x2="4.909448818897638in" y1="7.247356580427447in" y2="7.247356580427447in"/>
    <line x1="0.39370078740157477in" x2="4.909448818897638in" y1="7.462092238470192in" y2="7.462092238470192in"/>
    <line x1="0.39370078740157477in" x2="4.909448818897638in" y1="7.676827896512937in" y2="7.676827896512937in"/>
    <line x1="0.39370078740157477in" x2="4.909448818897638in" y1="7.891563554555682in" y2="7.891563554555682in"/>
    <line x1="0.39370078740157477in" x2="4.909448818897638in" y1="8.106299212598426in" y2="8.106299212598426in"/>
  </g>
  <g id="hlines" stroke="#000000" stroke-dasharray=".5 2.75" stroke-linecap="round" stroke-opacity=".5" stroke-width=".5">
    <line x1="5.893700787401575in" x2="10.409448818897637in" y1="0.5905511811023622in" y2="0.5905511811023622in"/>
    <line x1="5.893700787401575in" x2="10.409448818897637in" y1="0.8052868391451069in" y2="0.8052868391451069in"/>
    <line x1="5.893700787401575in" x2="10.409448818897637in" y1="1.0200224971878515in" y2="1.0200224971878515in"/>
    <line x1="5.893700787401575in" x2="10.409448818897637in" y1="1.2347581552305962in" y2="1.2347581552305962in"/>
    <line x1="5.893700787401575in" x2="10.409448818897637in" y1="1.449493813273341in" y2="1.449493813273341in"/>
    <line x1="5.893700787401575in" x2="10.409448818897637in" y1="1.6642294713160855in" y2="1.6642294713160855in"/>
    <line x1="5.893700787401575in" x2="10.409448818897637in" y1="1.8789651293588303in" y2="1.8789651293588303in"/>
    <line x1="5.893700787401575in" x2="10.409448818897637in" y1="2.093700787401575in" y2="2.093700787401575in"/>
    <line x1="5.893700787401575in" x2="10.409448818897637in" y1="2.3084364454443196in" y2="2.3084364454443196in"/>
    <line x1="5.893700787401575in" x2="10.409448818897637in" y1="2.5231721034870644in" y2="2.5231721034870644in"/>
    <line x1="5.893700787401575in" x2="10.409448818897637in" y1="2.737907761529809in" y2="2.737907761529809in"/>
    <line x1="5.893700787401575in" x2="10.409448818897637in" y1="2.9526434195725537in" y2="2.9526434195725537in"/>
    <line x1="5.893700787401575in" x2="10.409448818897637in" y1="3.1673790776152986in" y2="3.1673790776152986in"/>
    <line x1="5.893700787401575in" x2="10.409448818897637in" y1="3.382114735658043in" y2="3.382114735658043in"/>
    <line x1="5.893700787401575in" x2="10.409448818897637in" y1="3.596850393700788in" y2="3.596850393700788in"/>
    <line x1="5.893700787401575in" x2="10.409448818897637in" y1="3.8115860517435323in" y2="3.8115860517435323in"/>
    <line x1="5.893700787401575in" x2="10.409448818897637in" y1="4.026321709786277in" y2="4.026321709786277in"/>
    <line x1="5.893700787401575in" x2="10.409448818897637in" y1="4.241057367829022in" y2="4.241057367829022in"/>
    <line x1="5.893700787401575in" x2="10.409448818897637in" y1="4.455793025871767in" y2="4.455793025871767in"/>
    <line x1="5.893700787401575in" x2="10.409448818897637in" y1="4.670528683914511in" y2="4.670528683914511in"/>
    <line x1="5.893700787401575in" x2="10.409448818897637in" y1="4.885264341957256in" y2="4.885264341957256in"/>
    <line x1="5.893700787401575in" x2="10.409448818897637in" y1="5.1000000000000005in" y2="5.1000000000000005in"/>
    <line x1="5.893700787401575in" x2="10.409448818897637in" y1="5.314735658042745in" y2="5.314735658042745in"/>
    <line x1="5.893700787401575in" x2="10.409448818897637in" y1="5.52947131608549in" y2="5.52947131608549in"/>
    <line x1="5.893700787401575in" x2="10.409448818897637in" y1="5.744206974128235in" y2="5.744206974128235in"/>
    <line x1="5.893700787401575in" x2="10.409448818897637in" y1="5.958942632170979in" y2="5.958942632170979in"/>
    <line x1="5.893700787401575in" x2="10.409448818897637in" y1="6.173678290213724in" y2="6.173678290213724in"/>
    <line x1="5.893700787401575in" x2="10.409448818897637in" y1="6.388413948256469in" y2="6.388413948256469in"/>
    <line x1="5.893700787401575in" x2="10.409448818897637in" y1="6.603149606299214in" y2="6.603149606299214in"/>
    <line x1="5.893700787401575in" x2="10.409448818897637in" y1="6.8178852643419585in" y2="6.8178852643419585in"/>
    <line x1="5.893700787401575in" x2="10.409448818897637in" y1="7.0326209223847025in" y2="7.0326209223847025in"/>
    <line x1="5.893700787401575in" x2="10.409448818897637in" y1="7.247356580427447in" y2="7.247356580427447in"/>
    <line x1="5.893700787401575in" x2="10.409448818897637in" y1="7.462092238470192in" y2="7.462092238470192in"/>
    <line x1="5.893700787401575in" x2="10.409448818897637in" y1="7.676827896512937in" y2="7.676827896512937in"/>
    <line x1="5.893700787401575in" x2="10.409448818897637in" y1="7.891563554555682in" y2="7.891563554555682in"/>
    <line x1="5.893700787401575in" x2="10.409448818897637in" y1="8.106299212598426in" y2="8.106299212598426in"/>
  </g>
</svg>
