<?xml version="1.0" encoding="utf-8" ?>
<svg baseProfile="full" height="100%" version="1.1" width="100%" xmlns="http://www.w3.org/2000/svg" xmlns:ev="http://www.w3.org/2001/xml-events" xmlns:xlink="http://www.w3.org/1999/xlink"><defs /><g id="olines" stroke="black"><line x1="0in" x2="11in" y1="0in" y2="0in" /><line x1="11in" x2="11in" y1="0in" y2="8.5in" /><line x1="11in" x2="0in" y1="8.5in" y2="8.5in" /><line x1="0in" x2="0in" y1="8.5in" y2="0in" /><line x1="5.5in" x2="5.5in" y1="8.5in" y2="0in" /></g><g id="hlines" stroke="green"><line x1="2cm" x2="18cm" y1="2cm" y2="2cm" /><line x1="2cm" x2="18cm" y1="3cm" y2="3cm" /><line x1="2cm" x2="18cm" y1="4cm" y2="4cm" /><line x1="2cm" x2="18cm" y1="5cm" y2="5cm" /><line x1="2cm" x2="18cm" y1="6cm" y2="6cm" /><line x1="2cm" x2="18cm" y1="7cm" y2="7cm" /><line x1="2cm" x2="18cm" y1="8cm" y2="8cm" /><line x1="2cm" x2="18cm" y1="9cm" y2="9cm" /><line x1="2cm" x2="18cm" y1="10cm" y2="10cm" /><line x1="2cm" x2="18cm" y1="11cm" y2="11cm" /></g></svg>